<svg width="14" height="14" viewBox="0 0 14 14" fill="none" xmlns="http://www.w3.org/2000/svg">
<path d="M13.5055 3.27227L10.7277 0.494494C10.6758 0.443005 10.6142 0.402268 10.5465 0.374621C10.4788 0.346974 10.4064 0.332961 10.3332 0.333383H1.44436C1.14968 0.333383 0.867062 0.450446 0.658689 0.65882C0.450315 0.867194 0.333252 1.14981 0.333252 1.44449V12.5556C0.333252 12.8503 0.450315 13.1329 0.658689 13.3413C0.867062 13.5496 1.14968 13.6667 1.44436 13.6667H12.5555C12.8502 13.6667 13.1328 13.5496 13.3411 13.3413C13.5495 13.1329 13.6666 12.8503 13.6666 12.5556V3.66671C13.667 3.5936 13.653 3.52112 13.6253 3.45343C13.5977 3.38575 13.557 3.32418 13.5055 3.27227ZM4.77769 1.44449H9.22213V3.66671H4.77769V1.44449ZM9.22213 12.5556H4.77769V8.11116H9.22213V12.5556ZM10.3332 12.5556V8.11116C10.3332 7.81647 10.2162 7.53386 10.0078 7.32548C9.79943 7.11711 9.51682 7.00005 9.22213 7.00005H4.77769C4.48301 7.00005 4.20039 7.11711 3.99202 7.32548C3.78365 7.53386 3.66658 7.81647 3.66658 8.11116V12.5556H1.44436V1.44449H3.66658V3.66671C3.66658 3.9614 3.78365 4.24401 3.99202 4.45239C4.20039 4.66076 4.48301 4.77782 4.77769 4.77782H9.22213C9.51682 4.77782 9.79943 4.66076 10.0078 4.45239C10.2162 4.24401 10.3332 3.9614 10.3332 3.66671V1.67227L12.5555 3.89449V12.5556H10.3332Z" fill="#212121"/>
</svg>
